name D:\school\WTK\thesis\model\3dpredictsim\Results\windlass\Pog_s1_tmt_bCst_d00_k800_WL30_ig24.mot
datacolumns 128
datarows 4
range 1.01617058 1.04665570
endheader
time	pelvis_tilt	pelvis_list	pelvis_rotation	pelvis_tx	pelvis_ty	pelvis_tz	hip_flexion_l	hip_adduction_l	hip_rotation_l	hip_flexion_r	hip_adduction_r	hip_rotation_r	knee_angle_l	knee_angle_r	ankle_angle_l	ankle_angle_r	subtalar_angle_l	subtalar_angle_r	tmt_angle_l	tmt_angle_r	mtp_angle_l	mtp_angle_r	lumbar_extension	lumbar_bending	lumbar_rotation	arm_flex_l	arm_add_l	arm_rot_l	arm_flex_r	arm_add_r	arm_rot_r	elbow_flex_l	elbow_flex_r	pro_sup_l	pro_sup_r	glut_med1_l/activation	glut_med2_l/activation	glut_med3_l/activation	glut_min1_l/activation	glut_min2_l/activation	glut_min3_l/activation	semimem_l/activation	semiten_l/activation	bifemlh_l/activation	bifemsh_l/activation	sar_l/activation	add_long_l/activation	add_brev_l/activation	add_mag1_l/activation	add_mag2_l/activation	add_mag3_l/activation	tfl_l/activation	pect_l/activation	grac_l/activation	glut_max1_l/activation	glut_max2_l/activation	glut_max3_l/activation	iliacus_l/activation	psoas_l/activation	quad_fem_l/activation	gem_l/activation	peri_l/activation	rect_fem_l/activation	vas_med_l/activation	vas_int_l/activation	vas_lat_l/activation	med_gas_l/activation	lat_gas_l/activation	soleus_l/activation	tib_post_l/activation	flex_dig_l/activation	flex_hal_l/activation	tib_ant_l/activation	per_brev_l/activation	per_long_l/activation	per_tert_l/activation	ext_dig_l/activation	ext_hal_l/activation	ercspn_l/activation	intobl_l/activation	extobl_l/activation	glut_med1_r/activation	glut_med2_r/activation	glut_med3_r/activation	glut_min1_r/activation	glut_min2_r/activation	glut_min3_r/activation	semimem_r/activation	semiten_r/activation	bifemlh_r/activation	bifemsh_r/activation	sar_r/activation	add_long_r/activation	add_brev_r/activation	add_mag1_r/activation	add_mag2_r/activation	add_mag3_r/activation	tfl_r/activation	pect_r/activation	grac_r/activation	glut_max1_r/activation	glut_max2_r/activation	glut_max3_r/activation	iliacus_r/activation	psoas_r/activation	quad_fem_r/activation	gem_r/activation	peri_r/activation	rect_fem_r/activation	vas_med_r/activation	vas_int_r/activation	vas_lat_r/activation	med_gas_r/activation	lat_gas_r/activation	soleus_r/activation	tib_post_r/activation	flex_dig_r/activation	flex_hal_r/activation	tib_ant_r/activation	per_brev_r/activation	per_long_r/activation	per_tert_r/activation	ext_dig_r/activation	ext_hal_r/activation	ercspn_r/activation	intobl_r/activation	extobl_r/activation	
          1.01617058	         -2.93017651	         -3.22371452	          6.49743182	          1.27021323	          0.84161037	         -0.00553204	        -11.55272777	         -2.57504954	          8.15586848	         38.18174870	          2.67021324	         -4.85058280	        -14.79580542	        -25.17155363	         13.52366332	         13.05904589	         20.42174410	         -3.17441404	         14.55152811	         -1.66523053	          2.33583320	         -0.38735673	         -3.05768487	          2.43995425	         -1.29074319	         10.16812712	        -13.54678736	         18.28923303	        -12.43121883	        -13.94839922	          8.22853478	         41.56221873	         15.14217034	         86.51662706	         86.51662706	          0.15990096	          0.05000004	          0.05000005	          0.32795528	          0.16118438	          0.06837096	          0.05000015	          0.05000002	          0.05000001	          0.05000035	          0.05846811	          0.20464245	          0.17522243	          0.06367225	          0.05000206	          0.05000003	          0.25353881	          0.09350492	          0.07990335	          0.05000026	          0.05000016	          0.05000013	          0.17481422	          0.54656113	          0.14834617	          0.05000046	          0.06837042	          0.32832156	          0.10674136	          0.10575513	          0.09109314	          0.26365218	          0.34043279	          0.15115355	          0.28634717	          0.26709124	          0.28544913	          0.05000000	          0.05405185	          0.05846806	          0.05000001	          0.05000000	          0.05000002	          0.06899582	          0.05000000	          0.05000000	          0.05846808	          0.05846809	          0.05000001	          0.05846810	          0.05846809	          0.05846808	          0.18406179	          0.05846808	          0.29468272	          0.05846807	          0.07290218	          0.12783976	          0.40309218	          0.18466277	          0.23961294	          0.19628530	          0.05000013	          0.05995378	          0.05846815	          0.05000028	          0.15215738	          0.21817764	          0.06972528	          0.06596726	          0.46862662	          0.29178066	          0.19391826	          0.05000000	          0.14430244	          0.14570383	          0.12428495	          0.05259894	          0.05401253	          0.05950370	          0.05000000	          0.05000013	          0.05000050	          0.67148522	          0.35110375	          0.19689004	          0.45584571	          0.74507009	          0.41899255	          0.09332793	          0.05846801	          0.05247659	
          1.02633229	         -2.92801300	         -3.31564189	          6.80437492	          1.28599319	          0.83985217	         -0.00518802	        -12.41297178	         -2.95478194	          7.89772796	         37.69860182	          2.99395987	         -4.71889018	        -15.10450134	        -25.51036551	         12.83337445	         12.32219457	         20.95688366	         -3.43459338	         14.80349474	         -1.55651321	          2.43607872	         -0.35384456	         -2.81666909	          2.62561208	         -1.44439923	         10.09938140	        -13.57953666	         18.49052193	        -13.70153820	        -13.93701566	          8.00053083	         42.62116301	         15.25592777	         86.51662706	         86.51662706	          0.13674208	          0.05846815	          0.06837018	          0.28045665	          0.13783963	          0.05846870	          0.05000038	          0.05264475	          0.05846807	          0.05000000	          0.05000007	          0.37203076	          0.14984453	          0.20320762	          0.05846923	          0.06526192	          0.21681814	          0.07996240	          0.06833089	          0.05846831	          0.05846831	          0.06078458	          0.14949542	          0.52157830	          0.18542696	          0.06837050	          0.05846820	          0.28076988	          0.15460842	          0.14849685	          0.13338874	          0.22546674	          0.29112701	          0.12926158	          0.25388889	          0.22840775	          0.24410680	          0.10020551	          0.05000000	          0.05000000	          0.05000000	          0.05000002	          0.05000002	          0.09014498	          0.06837032	          0.05000000	          0.05000000	          0.05000000	          0.11924199	          0.05000001	          0.05000001	          0.05000000	          0.15740364	          0.05000000	          0.25200305	          0.05000000	          0.06234361	          0.10932440	          0.34474019	          0.42704149	          0.27103924	          0.19130461	          0.05000006	          0.06837006	          0.05000006	          0.06538213	          0.18290166	          0.21446645	          0.05962679	          0.06837032	          0.68322495	          0.24952130	          0.16583258	          0.06837034	          0.24759114	          0.24220404	          0.20904575	          0.05846815	          0.06413947	          0.06618519	          0.06837031	          0.06837035	          0.06837030	          0.57423223	          0.36837785	          0.21881252	          0.38982438	          0.63715962	          0.35830875	          0.07981100	          0.05000000	          0.05000000	
          1.03649400	         -2.92237168	         -3.39829397	          7.08177317	          1.30188509	          0.83804456	         -0.00485303	        -13.06214036	         -3.26710644	          7.61137730	         36.97586439	          3.28394596	         -4.48778874	        -15.82883740	        -26.02192058	         12.22810319	         11.87158902	         21.33074744	         -3.70073966	         14.95601954	         -1.78862863	          2.53642636	         -0.39492684	         -2.56369729	          2.80112938	         -1.59240466	          9.96461713	        -13.60572779	         18.61287061	        -14.89160375	        -13.91300759	          7.83538254	         43.60953898	         15.26841812	         86.51662706	         86.51662706	          0.23640799	          0.05000008	          0.05846795	          0.23983749	          0.11787608	          0.05000060	          0.05000022	          0.05000001	          0.05000001	          0.05846844	          0.07994961	          0.31814856	          0.12814216	          0.17377653	          0.05000099	          0.05580987	          0.28731446	          0.06838134	          0.05843437	          0.05000029	          0.05000023	          0.05198100	          0.12784367	          0.59837848	          0.15857108	          0.05846823	          0.05000010	          0.24010523	          0.13221608	          0.12698966	          0.11406970	          0.19281179	          0.24896231	          0.11054028	          0.21711750	          0.19532687	          0.20875218	          0.19189392	          0.05000006	          0.06853764	          0.05000002	          0.16096269	          0.05000029	          0.10726876	          0.05846807	          0.05000000	          0.25955107	          0.31453014	          0.43115666	          0.36063278	          0.22149732	          0.24277023	          0.16706469	          0.14659475	          0.23209288	          0.09577943	          0.05846814	          0.09349066	          0.29481056	          0.36519195	          0.23311472	          0.22865536	          0.05000001	          0.05846868	          0.21241709	          0.23024514	          0.24913481	          0.23636095	          0.05846808	          0.05846807	          0.58427168	          0.21338248	          0.34323084	          0.05846808	          0.21173186	          0.20712500	          0.17876911	          0.05000009	          0.05485000	          0.05674756	          0.05846805	          0.05846812	          0.05846809	          0.68243388	          0.41424674	          0.20860326	          0.54433811	          0.76793795	          0.44183623	          0.09380790	          0.08229752	          0.05000000	
          1.04665570	         -2.91587389	         -3.46366979	          7.31563520	          1.31766101	          0.83629777	         -0.00449368	        -13.46902703	         -3.50898656	          7.31621843	         36.14899766	          3.56118753	         -4.25199721	        -16.98876949	        -26.42497170	         11.69472851	         11.54742199	         21.58379850	         -3.97668000	         15.00000000	         -1.88218493	          2.62427939	         -0.41587831	         -2.32440976	          2.96034895	         -1.73003713	          9.79569696	        -13.62654881	         18.66723868	        -15.94232971	        -13.87628948	          7.75291437	         44.50238946	         15.14789782	         86.51662706	         86.51662706	          0.20216839	          0.05000004	          0.05000001	          0.20510120	          0.10080379	          0.05000009	          0.05000065	          0.05000008	          0.05000009	          0.05000032	          0.06837032	          0.31626697	          0.10958303	          0.14860830	          0.05000036	          0.10682831	          0.25682788	          0.05847755	          0.05000008	          0.05000031	          0.05000019	          0.05000007	          0.10932774	          0.62177619	          0.13560482	          0.05000021	          0.05000013	          0.20533016	          0.11310729	          0.11768530	          0.13689598	          0.16488635	          0.21290444	          0.09453044	          0.18961213	          0.16703718	          0.17851806	          0.28652996	          0.07994967	          0.07047959	          0.05000013	          0.21393059	          0.15198460	          0.13301089	          0.05000000	          0.05000000	          0.38192780	          0.47541012	          0.56849457	          0.30840141	          0.20594298	          0.39003383	          0.14286827	          0.15423466	          0.19847826	          0.08190744	          0.05000006	          0.07995016	          0.25211237	          0.31230040	          0.31823476	          0.24287950	          0.05000001	          0.05000068	          0.20361561	          0.32853207	          0.29235697	          0.26109553	          0.05000000	          0.05000000	          0.49965008	          0.18247774	          0.29352000	          0.05000000	          0.28160276	          0.28422612	          0.24846660	          0.05000000	          0.05000000	          0.05000000	          0.05000000	          0.05000004	          0.05000001	          0.76786588	          0.35425029	          0.17839070	          0.72835988	          0.81243732	          0.55661508	          0.10695923	          0.07037815	          0.05000000	
